HIERARCHY
ROOT Hips
{
	OFFSET -0.001795 -0.223333 0.028219
	CHANNELS 6 Xposition Yposition Zposition Zrotation Yrotation Xrotation 
	JOINT LeftUpLeg
	{
		OFFSET 0.069520 -0.091406 -0.006815
		CHANNELS 3 Zrotation Yrotation Xrotation
		JOINT LeftLeg
		{
			OFFSET 0.034277 -0.375199 -0.004496
			CHANNELS 3 Zrotation Yrotation Xrotation
			JOINT LeftFoot
			{
				OFFSET -0.013596 -0.397961 -0.043693
				CHANNELS 3 Zrotation Yrotation Xrotation
				JOINT LeftToe
				{
					OFFSET 0.026358 -0.055791 0.119288
					CHANNELS 3 Zrotation Yrotation Xrotation
					End Site
					{
						OFFSET 0.000000 0.000000 0.000000
					}
				}
			}
		}
	}
	JOINT RightUpLeg
	{
		OFFSET -0.067670 -0.090522 -0.004320
		CHANNELS 3 Zrotation Yrotation Xrotation
		JOINT RightLeg
		{
			OFFSET -0.038290 -0.382569 -0.008850
			CHANNELS 3 Zrotation Yrotation Xrotation
			JOINT RightFoot
			{
				OFFSET 0.015774 -0.398415 -0.042312
				CHANNELS 3 Zrotation Yrotation Xrotation
				JOINT RightToe
				{
					OFFSET -0.025372 -0.048144 0.123348
					CHANNELS 3 Zrotation Yrotation Xrotation
					End Site
					{
						OFFSET 0.000000 0.000000 0.000000
					}
				}
			}
		}
	}
	JOINT Spine
	{
		OFFSET -0.002533 0.108963 -0.026696
		CHANNELS 3 Zrotation Yrotation Xrotation
		JOINT Spine1
		{
			OFFSET 0.005487 0.135180 0.001092
			CHANNELS 3 Zrotation Yrotation Xrotation
			JOINT Spine2
			{
				OFFSET 0.001457 0.052922 0.025425
				CHANNELS 3 Zrotation Yrotation Xrotation
				JOINT Neck
				{
					OFFSET -0.002778 0.213870 -0.042857
					CHANNELS 3 Zrotation Yrotation Xrotation
					JOINT Head
					{
						OFFSET 0.005152 0.064970 0.051349
						CHANNELS 3 Zrotation Yrotation Xrotation
						End Site
						{
							OFFSET 0.000000 0.000000 0.000000
						}
					}
				}
				JOINT LeftShoulder
				{
					OFFSET 0.078845 0.121749 -0.034090
					CHANNELS 3 Zrotation Yrotation Xrotation
					JOINT LeftArm
					{
						OFFSET 0.090977 0.030469 -0.008868
						CHANNELS 3 Zrotation Yrotation Xrotation
						JOINT LeftForeArm
						{
							OFFSET 0.259612 -0.012772 -0.027456
							CHANNELS 3 Zrotation Yrotation Xrotation
							JOINT LeftHand
							{
								OFFSET 0.249234 0.008986 -0.001171
								CHANNELS 3 Zrotation Yrotation Xrotation
								End Site
								{
									OFFSET 0.000000 0.000000 0.000000
								}
							}
						}
					}
				}
				JOINT RightShoulder
				{
					OFFSET -0.081759 0.118833 -0.038615
					CHANNELS 3 Zrotation Yrotation Xrotation
					JOINT RightArm
					{
						OFFSET -0.096012 0.032551 -0.009143
						CHANNELS 3 Zrotation Yrotation Xrotation
						JOINT RightForeArm
						{
							OFFSET -0.253742 -0.013329 -0.021401
							CHANNELS 3 Zrotation Yrotation Xrotation
							JOINT RightHand
							{
								OFFSET -0.255298 0.007772 -0.005559
								CHANNELS 3 Zrotation Yrotation Xrotation
								End Site
								{
									OFFSET 0.000000 0.000000 0.000000
								}
							}
						}
					}
				}
			}
		}
	}
}
MOTION
Frames: 10
Frame Time: 0.050000
1.816248 0.858134 -0.022109 -123.730113 82.548410 -115.842632 30.477060 -14.543353 -44.338014 -46.933770 -7.745552 31.443733 59.331352 51.878079 54.347447 0.000000 0.000000 0.000000 -7.956457 -7.921682 -17.685379 -20.977282 -12.771555 45.506832 13.162820 17.083752 10.385168 0.000000 0.000000 0.000000 -22.572279 -12.794277 45.276908 -0.683049 1.700138 -27.523852 9.787000 32.010358 25.416491 6.179820 9.629295 -33.384141 0.000000 0.000000 0.000000 -13.497287 -33.030118 -11.151748 -48.161750 -7.467380 1.942007 -7.278365 -35.685153 -3.644502 0.000000 0.000000 0.000000 28.068965 10.337539 33.499778 40.344982 41.817647 3.619842 -4.356490 29.832779 -1.970008 0.000000 0.000000 0.000000 
1.846297 0.862777 -0.039525 -121.667794 81.972883 -114.390193 29.333831 -13.747757 -42.267584 -48.479244 -7.841514 33.021022 57.509995 50.819774 53.457172 0.000000 0.000000 0.000000 -7.190679 -7.135332 -17.238810 -20.890930 -14.268867 47.882847 7.611434 11.250573 10.152802 0.000000 0.000000 0.000000 -27.057692 -12.755241 46.828602 -1.545791 1.888101 -26.913704 10.301504 32.426543 24.308925 7.075557 9.155019 -32.297704 0.000000 0.000000 0.000000 -12.535106 -33.959443 -8.707857 -45.529057 -9.577060 2.447624 -2.753412 -36.008871 -4.870343 0.000000 0.000000 0.000000 30.916485 13.376978 36.575944 36.511537 41.957151 1.468872 -7.392212 30.818268 -3.098246 0.000000 0.000000 0.000000 
1.875244 0.872037 -0.053426 -119.199630 81.418273 -111.152065 29.769082 -13.244876 -40.613962 -49.403663 -8.008562 32.575411 52.701578 49.103832 49.971576 0.000000 0.000000 0.000000 -5.782106 -6.984923 -19.125784 -18.815709 -14.562155 47.053149 5.060721 7.925320 8.639492 0.000000 0.000000 0.000000 -29.811758 -12.720234 47.549458 -1.539368 1.669625 -27.638248 11.016208 32.470623 24.601504 6.463508 9.595339 -33.422789 0.000000 0.000000 0.000000 -10.330072 -32.904085 -7.149409 -45.923760 -11.665691 2.165518 0.194369 -37.980354 -6.694640 0.000000 0.000000 0.000000 32.390583 13.687054 37.480709 35.414973 40.751848 0.197515 -7.033942 32.241882 -3.162780 0.000000 0.000000 0.000000 
1.904034 0.886791 -0.065567 -113.898363 82.017691 -106.205515 25.919506 -11.206454 -35.459549 -46.166620 -8.587090 30.312248 53.973671 46.316427 51.853843 0.000000 0.000000 0.000000 -3.612535 -6.461727 -21.165227 -17.098286 -13.811174 45.309848 5.609574 7.622646 -1.241782 0.000000 0.000000 0.000000 -32.680247 -12.303207 47.875911 -1.246647 1.667017 -27.401361 10.090198 31.358275 24.350034 6.084023 9.341812 -32.999194 0.000000 0.000000 0.000000 -7.789975 -29.962134 -5.074250 -46.866387 -15.092391 1.734605 2.410748 -38.152525 -7.575778 0.000000 0.000000 0.000000 33.255089 14.915697 37.722112 37.536901 40.538530 0.330937 -7.982525 31.769722 -3.262319 0.000000 0.000000 0.000000 
1.932249 0.896500 -0.076426 -120.223560 80.643714 -111.718218 24.741675 -10.760531 -33.692865 -42.656188 -8.732956 29.897148 49.472909 43.141939 48.991864 0.000000 0.000000 0.000000 -0.987912 -6.522266 -24.001066 -10.153033 -13.505903 38.844505 3.824497 3.362555 -3.408750 0.000000 0.000000 0.000000 -31.268382 -12.628271 47.386860 -1.448707 1.907253 -26.064721 9.463987 28.333137 23.624792 4.489200 9.625847 -31.529054 0.000000 0.000000 0.000000 -8.500382 -29.845323 -5.441327 -46.279677 -15.304059 2.222494 3.985181 -37.469410 -7.785604 0.000000 0.000000 0.000000 31.169075 14.860176 35.533386 40.146357 37.572532 0.645598 -6.775086 32.771409 -2.736693 0.000000 0.000000 0.000000 
1.959729 0.908882 -0.085584 -128.208634 80.421814 -119.209734 21.418655 -9.414781 -30.261079 -37.615023 -8.810479 28.158925 44.156896 38.911953 44.247275 0.000000 0.000000 0.000000 1.779079 -7.557022 -28.449116 -3.334081 -10.707227 29.510373 3.023799 2.669685 -0.314844 0.000000 0.000000 0.000000 -30.035374 -13.035656 47.637344 -0.067302 1.699620 -26.167856 7.908743 26.920086 23.807476 6.496377 9.180866 -36.810452 0.000000 0.000000 0.000000 -9.284300 -30.014006 -6.090671 -46.064485 -14.529566 2.418657 2.243900 -38.605716 -7.393500 0.000000 0.000000 0.000000 28.695186 14.042481 33.082687 43.916961 35.801395 1.650276 -5.818561 32.435000 -2.121297 0.000000 0.000000 0.000000 
1.988054 0.916264 -0.093221 -137.805326 79.680380 -129.186021 16.596085 -7.571556 -26.233036 -31.769598 -8.750685 28.927178 39.882491 35.661529 35.242931 0.000000 0.000000 0.000000 4.297908 -7.892319 -30.715062 -0.845521 -7.371309 21.600399 2.851268 4.286049 7.047839 0.000000 0.000000 0.000000 -27.843878 -13.742032 47.984436 0.143067 1.794029 -25.738502 6.486033 24.539987 23.432655 8.098688 8.491822 -36.929519 0.000000 0.000000 0.000000 -11.290521 -30.380896 -7.148541 -44.858650 -12.428330 2.557659 -0.101962 -39.345854 -6.235639 0.000000 0.000000 0.000000 28.722703 12.672677 32.061088 44.862308 33.846929 1.005165 -5.312242 31.701145 -1.824370 0.000000 0.000000 0.000000 
2.019391 0.919765 -0.098886 -141.067160 80.115590 -132.772889 14.347773 -6.666365 -24.677082 -31.041031 -8.873153 30.562918 40.261398 34.508913 38.445715 0.000000 0.000000 0.000000 5.978582 -8.325836 -32.920984 -2.088972 -5.515933 19.640649 5.945330 8.998032 13.232403 0.000000 0.000000 0.000000 -26.262465 -13.957143 48.159942 -0.160095 1.798189 -25.906249 5.656028 23.203910 23.122033 9.598157 7.390998 -34.187925 0.000000 0.000000 0.000000 -12.210530 -31.999794 -6.568609 -42.911516 -11.483858 2.623920 -1.560712 -38.584724 -5.094225 0.000000 0.000000 0.000000 29.167851 12.751756 31.761825 44.598341 31.771138 0.174546 -4.848733 31.463078 -1.651208 0.000000 0.000000 0.000000 
2.052902 0.916336 -0.104372 -149.072167 79.334661 -141.826104 13.136341 -5.731077 -21.759180 -32.662094 -9.615363 32.991643 38.935491 34.026809 34.468762 0.000000 0.000000 0.000000 7.122432 -8.822309 -34.131783 -5.856050 -5.516577 22.830221 8.382942 11.443328 14.120489 0.000000 0.000000 0.000000 -21.930741 -14.433759 47.157077 -0.443849 2.052053 -25.500750 4.117842 20.967774 23.354108 10.616069 6.800926 -32.628295 0.000000 0.000000 0.000000 -14.739446 -32.544621 -7.759964 -41.378690 -8.826287 2.515926 -5.302149 -41.063622 -3.667753 0.000000 0.000000 0.000000 30.978403 10.272304 31.619595 42.383792 30.215525 -1.367494 -5.016518 32.363229 -1.654268 0.000000 0.000000 0.000000 
2.089018 0.909932 -0.109627 -154.553681 80.162776 -147.896348 11.420466 -4.990437 -20.242769 -36.505357 -10.341282 36.858756 41.449929 35.845501 36.712874 0.000000 0.000000 0.000000 6.776765 -9.821766 -35.231895 -10.731328 -7.036157 30.030533 11.666271 14.956595 10.705657 0.000000 0.000000 0.000000 -16.437390 -14.044780 44.585923 -1.642872 2.276627 -25.491647 2.066784 18.261127 22.344422 10.892165 5.318038 -27.370689 0.000000 0.000000 0.000000 -18.612609 -32.734822 -9.917763 -39.755892 -4.483616 2.293494 -11.650175 -40.197306 -0.492312 0.000000 0.000000 0.000000 33.687815 9.092924 32.872898 36.897566 28.656157 -3.105028 -3.030664 29.783827 -1.470086 0.000000 0.000000 0.000000 
